<?xml version="1.0" encoding="UTF-8" standalone="no"?><svg xmlns="http://www.w3.org/2000/svg" xmlns:xlink="http://www.w3.org/1999/xlink" contentScriptType="application/ecmascript" contentStyleType="text/css" height="712px" preserveAspectRatio="none" style="width:888px;height:712px;" version="1.1" viewBox="0 0 888 712" width="888px" zoomAndPan="magnify"><defs><filter height="300%" id="f6nvoq0" width="300%" x="-1" y="-1"><feGaussianBlur result="blurOut" stdDeviation="2.0"/><feColorMatrix in="blurOut" result="blurOut2" type="matrix" values="0 0 0 0 0 0 0 0 0 0 0 0 0 0 0 0 0 0 .4 0"/><feOffset dx="4.0" dy="4.0" in="blurOut2" result="blurOut3"/><feBlend in="SourceGraphic" in2="blurOut3" mode="normal"/></filter></defs><g><rect fill="#FEFECE" filter="url(#f6nvoq0)" height="33.9688" style="stroke: #A80036; stroke-width: 1.5;" width="113" x="416" y="365"/><text fill="#000000" font-family="sans-serif" font-size="12" lengthAdjust="spacingAndGlyphs" textLength="99" x="423" y="378.1387">get_transaction</text><line style="stroke: #A80036; stroke-width: 1.5;" x1="417" x2="528" y1="382.9688" y2="382.9688"/><rect fill="#FEFECE" filter="url(#f6nvoq0)" height="33.9688" style="stroke: #A80036; stroke-width: 1.5;" width="83" x="6" y="365"/><text fill="#000000" font-family="sans-serif" font-size="12" lengthAdjust="spacingAndGlyphs" textLength="69" x="13" y="378.1387">_buy_plane</text><line style="stroke: #A80036; stroke-width: 1.5;" x1="7" x2="88" y1="382.9688" y2="382.9688"/><rect fill="#FEFECE" filter="url(#f6nvoq0)" height="33.9688" style="stroke: #A80036; stroke-width: 1.5;" width="72" x="124.5" y="365"/><text fill="#000000" font-family="sans-serif" font-size="12" lengthAdjust="spacingAndGlyphs" textLength="58" x="131.5" y="378.1387">_buy_gun</text><line style="stroke: #A80036; stroke-width: 1.5;" x1="125.5" x2="195.5" y1="382.9688" y2="382.9688"/><rect fill="#FEFECE" filter="url(#f6nvoq0)" height="33.9688" style="stroke: #A80036; stroke-width: 1.5;" width="86" x="472.5" y="670"/><text fill="#000000" font-family="sans-serif" font-size="12" lengthAdjust="spacingAndGlyphs" textLength="72" x="479.5" y="683.1387">get_hangar</text><line style="stroke: #A80036; stroke-width: 1.5;" x1="473.5" x2="557.5" y1="687.9688" y2="687.9688"/><rect fill="#FEFECE" filter="url(#f6nvoq0)" height="33.9688" style="stroke: #A80036; stroke-width: 1.5;" width="76" x="577.5" y="199.5"/><text fill="#000000" font-family="sans-serif" font-size="12" lengthAdjust="spacingAndGlyphs" textLength="62" x="584.5" y="212.6387">get_buyer</text><line style="stroke: #A80036; stroke-width: 1.5;" x1="578.5" x2="652.5" y1="217.4688" y2="217.4688"/><rect fill="#FEFECE" filter="url(#f6nvoq0)" height="33.9688" style="stroke: #A80036; stroke-width: 1.5;" width="92" x="647.5" y="670"/><text fill="#000000" font-family="sans-serif" font-size="12" lengthAdjust="spacingAndGlyphs" textLength="78" x="654.5" y="683.1387">get_account</text><line style="stroke: #A80036; stroke-width: 1.5;" x1="648.5" x2="738.5" y1="687.9688" y2="687.9688"/><!--class Shop--><rect fill="#FEFECE" filter="url(#f6nvoq0)" height="86.4141" style="stroke: #A80036; stroke-width: 1.5;" width="92" x="420.5" y="8"/><ellipse cx="448.1" cy="24" fill="#ADD1B2" rx="11" ry="11" style="stroke: #A80036; stroke-width: 1.0;"/><path d="M450.4438,19.6719 L450.6156,19.75 C450.8344,19.4375 451.0375,19.3438 451.3344,19.3438 C451.6313,19.3438 451.9125,19.4844 452.0688,19.75 C452.1625,19.9063 452.1781,20.0313 452.1781,20.4688 L452.1781,21.8906 C452.1781,22.3125 452.1469,22.5 452.0375,22.6563 C451.8656,22.875 451.6,23.0156 451.3344,23.0156 C451.1156,23.0156 450.8813,22.9063 450.7406,22.7656 C450.6,22.6406 450.5688,22.5156 450.5063,22.1094 C450.4125,21.7031 450.2406,21.4844 449.7563,21.2031 C449.2875,20.9531 448.6781,20.7969 448.1,20.7969 C446.3656,20.7969 445.1156,22.1094 445.1156,23.8906 L445.1156,24.9844 C445.1156,26.6875 446.4125,27.7813 448.4594,27.7813 C449.225,27.7813 449.9125,27.6563 450.3344,27.3906 C450.5219,27.2969 450.5219,27.2969 450.975,26.8125 C451.1625,26.625 451.3656,26.5469 451.5844,26.5469 C452.0531,26.5469 452.4438,26.9375 452.4438,27.3906 C452.4438,27.7813 452.1156,28.2344 451.5375,28.6406 C450.7875,29.1875 449.6313,29.4844 448.4125,29.4844 C445.5219,29.4844 443.4125,27.5938 443.4125,25.0156 L443.4125,23.8906 C443.4125,21.1719 445.4125,19.0938 448.0375,19.0938 C448.9125,19.0938 449.5063,19.2344 450.4438,19.6719 Z "/><text fill="#000000" font-family="sans-serif" font-size="12" lengthAdjust="spacingAndGlyphs" textLength="32" x="464.9" y="28.1543">Shop</text><line style="stroke: #A80036; stroke-width: 1.5;" x1="421.5" x2="511.5" y1="40" y2="40"/><ellipse cx="431.5" cy="51.9023" fill="none" rx="3" ry="3" style="stroke: #038048; stroke-width: 1.0;"/><text fill="#000000" font-family="sans-serif" font-size="11" lengthAdjust="spacingAndGlyphs" textLength="14" x="440.5" y="54.2104">db</text><line style="stroke: #A80036; stroke-width: 1.5;" x1="421.5" x2="511.5" y1="60.8047" y2="60.8047"/><ellipse cx="431.5" cy="72.707" fill="#84BE84" rx="3" ry="3" style="stroke: #038048; stroke-width: 1.0;"/><text fill="#000000" font-family="sans-serif" font-size="11" font-style="italic" lengthAdjust="spacingAndGlyphs" textLength="66" x="440.5" y="75.0151">buy_plane()</text><ellipse cx="431.5" cy="85.5117" fill="#84BE84" rx="3" ry="3" style="stroke: #038048; stroke-width: 1.0;"/><text fill="#000000" font-family="sans-serif" font-size="11" font-style="italic" lengthAdjust="spacingAndGlyphs" textLength="56" x="440.5" y="87.8198">buy_gun()</text><!--class WarPlanesShop--><rect fill="#FEFECE" filter="url(#f6nvoq0)" height="124.8281" style="stroke: #A80036; stroke-width: 1.5;" width="152" x="390.5" y="154"/><ellipse cx="415.4" cy="170" fill="#ADD1B2" rx="11" ry="11" style="stroke: #A80036; stroke-width: 1.0;"/><path d="M417.7438,165.6719 L417.9156,165.75 C418.1344,165.4375 418.3375,165.3438 418.6344,165.3438 C418.9313,165.3438 419.2125,165.4844 419.3688,165.75 C419.4625,165.9063 419.4781,166.0313 419.4781,166.4688 L419.4781,167.8906 C419.4781,168.3125 419.4469,168.5 419.3375,168.6563 C419.1656,168.875 418.9,169.0156 418.6344,169.0156 C418.4156,169.0156 418.1813,168.9063 418.0406,168.7656 C417.9,168.6406 417.8688,168.5156 417.8063,168.1094 C417.7125,167.7031 417.5406,167.4844 417.0563,167.2031 C416.5875,166.9531 415.9781,166.7969 415.4,166.7969 C413.6656,166.7969 412.4156,168.1094 412.4156,169.8906 L412.4156,170.9844 C412.4156,172.6875 413.7125,173.7813 415.7594,173.7813 C416.525,173.7813 417.2125,173.6563 417.6344,173.3906 C417.8219,173.2969 417.8219,173.2969 418.275,172.8125 C418.4625,172.625 418.6656,172.5469 418.8844,172.5469 C419.3531,172.5469 419.7438,172.9375 419.7438,173.3906 C419.7438,173.7813 419.4156,174.2344 418.8375,174.6406 C418.0875,175.1875 416.9313,175.4844 415.7125,175.4844 C412.8219,175.4844 410.7125,173.5938 410.7125,171.0156 L410.7125,169.8906 C410.7125,167.1719 412.7125,165.0938 415.3375,165.0938 C416.2125,165.0938 416.8063,165.2344 417.7438,165.6719 Z "/><text fill="#000000" font-family="sans-serif" font-size="12" lengthAdjust="spacingAndGlyphs" textLength="98" x="431.6" y="174.1543">WarPlanesShop</text><line style="stroke: #A80036; stroke-width: 1.5;" x1="391.5" x2="541.5" y1="186" y2="186"/><line style="stroke: #A80036; stroke-width: 1.5;" x1="391.5" x2="541.5" y1="194" y2="194"/><ellipse cx="401.5" cy="205.9023" fill="#84BE84" rx="3" ry="3" style="stroke: #038048; stroke-width: 1.0;"/><text fill="#000000" font-family="sans-serif" font-size="11" lengthAdjust="spacingAndGlyphs" textLength="65" x="410.5" y="208.2104">buy_plane()</text><ellipse cx="401.5" cy="218.707" fill="#84BE84" rx="3" ry="3" style="stroke: #038048; stroke-width: 1.0;"/><text fill="#000000" font-family="sans-serif" font-size="11" lengthAdjust="spacingAndGlyphs" textLength="55" x="410.5" y="221.0151">buy_gun()</text><rect fill="#F24D5C" height="6" style="stroke: #C82930; stroke-width: 1.0;" width="6" x="398.5" y="228.5117"/><text fill="#000000" font-family="sans-serif" font-size="11" lengthAdjust="spacingAndGlyphs" textLength="125" x="410.5" y="233.8198">_product_spec_by_id()</text><rect fill="#F24D5C" height="6" style="stroke: #C82930; stroke-width: 1.0;" width="6" x="398.5" y="241.3164"/><text fill="#000000" font-family="sans-serif" font-size="11" lengthAdjust="spacingAndGlyphs" textLength="126" x="410.5" y="246.6245">_product_price_by_id()</text><polygon fill="#FFFF44" points="401.5,252.1211,405.5,256.1211,401.5,260.1211,397.5,256.1211" style="stroke: #B38D22; stroke-width: 1.0;"/><text fill="#000000" font-family="sans-serif" font-size="11" lengthAdjust="spacingAndGlyphs" textLength="116" x="410.5" y="259.4292">__compatible_guns()</text><polygon fill="#FFFF44" points="401.5,264.9258,405.5,268.9258,401.5,272.9258,397.5,268.9258" style="stroke: #B38D22; stroke-width: 1.0;"/><text fill="#000000" font-family="sans-serif" font-size="11" lengthAdjust="spacingAndGlyphs" textLength="100" x="410.5" y="272.2339">__update_player()</text><!--class Buyer--><rect fill="#FEFECE" filter="url(#f6nvoq0)" height="86.4141" style="stroke: #A80036; stroke-width: 1.5;" width="70" x="569.5" y="339"/><ellipse cx="585.85" cy="355" fill="#ADD1B2" rx="11" ry="11" style="stroke: #A80036; stroke-width: 1.0;"/><path d="M588.1938,350.6719 L588.3656,350.75 C588.5844,350.4375 588.7875,350.3438 589.0844,350.3438 C589.3813,350.3438 589.6625,350.4844 589.8188,350.75 C589.9125,350.9063 589.9281,351.0313 589.9281,351.4688 L589.9281,352.8906 C589.9281,353.3125 589.8969,353.5 589.7875,353.6563 C589.6156,353.875 589.35,354.0156 589.0844,354.0156 C588.8656,354.0156 588.6313,353.9063 588.4906,353.7656 C588.35,353.6406 588.3188,353.5156 588.2563,353.1094 C588.1625,352.7031 587.9906,352.4844 587.5063,352.2031 C587.0375,351.9531 586.4281,351.7969 585.85,351.7969 C584.1156,351.7969 582.8656,353.1094 582.8656,354.8906 L582.8656,355.9844 C582.8656,357.6875 584.1625,358.7813 586.2094,358.7813 C586.975,358.7813 587.6625,358.6563 588.0844,358.3906 C588.2719,358.2969 588.2719,358.2969 588.725,357.8125 C588.9125,357.625 589.1156,357.5469 589.3344,357.5469 C589.8031,357.5469 590.1938,357.9375 590.1938,358.3906 C590.1938,358.7813 589.8656,359.2344 589.2875,359.6406 C588.5375,360.1875 587.3813,360.4844 586.1625,360.4844 C583.2719,360.4844 581.1625,358.5938 581.1625,356.0156 L581.1625,354.8906 C581.1625,352.1719 583.1625,350.0938 585.7875,350.0938 C586.6625,350.0938 587.2563,350.2344 588.1938,350.6719 Z "/><text fill="#000000" font-family="sans-serif" font-size="12" lengthAdjust="spacingAndGlyphs" textLength="35" x="600.15" y="359.1543">Buyer</text><line style="stroke: #A80036; stroke-width: 1.5;" x1="570.5" x2="638.5" y1="371" y2="371"/><ellipse cx="580.5" cy="382.9023" fill="none" rx="3" ry="3" style="stroke: #038048; stroke-width: 1.0;"/><text fill="#000000" font-family="sans-serif" font-size="11" lengthAdjust="spacingAndGlyphs" textLength="10" x="589.5" y="385.2104">id</text><ellipse cx="580.5" cy="395.707" fill="none" rx="3" ry="3" style="stroke: #038048; stroke-width: 1.0;"/><text fill="#000000" font-family="sans-serif" font-size="11" lengthAdjust="spacingAndGlyphs" textLength="44" x="589.5" y="398.0151">account</text><ellipse cx="580.5" cy="408.5117" fill="none" rx="3" ry="3" style="stroke: #038048; stroke-width: 1.0;"/><text fill="#000000" font-family="sans-serif" font-size="11" lengthAdjust="spacingAndGlyphs" textLength="40" x="589.5" y="410.8198">hangar</text><line style="stroke: #A80036; stroke-width: 1.5;" x1="570.5" x2="638.5" y1="417.4141" y2="417.4141"/><!--class Account--><rect fill="#FEFECE" filter="url(#f6nvoq0)" height="99.2188" style="stroke: #A80036; stroke-width: 1.5;" width="164" x="715.5" y="498"/><ellipse cx="767.75" cy="514" fill="#ADD1B2" rx="11" ry="11" style="stroke: #A80036; stroke-width: 1.0;"/><path d="M770.0938,509.6719 L770.2656,509.75 C770.4844,509.4375 770.6875,509.3438 770.9844,509.3438 C771.2813,509.3438 771.5625,509.4844 771.7188,509.75 C771.8125,509.9063 771.8281,510.0313 771.8281,510.4688 L771.8281,511.8906 C771.8281,512.3125 771.7969,512.5 771.6875,512.6563 C771.5156,512.875 771.25,513.0156 770.9844,513.0156 C770.7656,513.0156 770.5313,512.9063 770.3906,512.7656 C770.25,512.6406 770.2188,512.5156 770.1563,512.1094 C770.0625,511.7031 769.8906,511.4844 769.4063,511.2031 C768.9375,510.9531 768.3281,510.7969 767.75,510.7969 C766.0156,510.7969 764.7656,512.1094 764.7656,513.8906 L764.7656,514.9844 C764.7656,516.6875 766.0625,517.7813 768.1094,517.7813 C768.875,517.7813 769.5625,517.6563 769.9844,517.3906 C770.1719,517.2969 770.1719,517.2969 770.625,516.8125 C770.8125,516.625 771.0156,516.5469 771.2344,516.5469 C771.7031,516.5469 772.0938,516.9375 772.0938,517.3906 C772.0938,517.7813 771.7656,518.2344 771.1875,518.6406 C770.4375,519.1875 769.2813,519.4844 768.0625,519.4844 C765.1719,519.4844 763.0625,517.5938 763.0625,515.0156 L763.0625,513.8906 C763.0625,511.1719 765.0625,509.0938 767.6875,509.0938 C768.5625,509.0938 769.1563,509.2344 770.0938,509.6719 Z "/><text fill="#000000" font-family="sans-serif" font-size="12" lengthAdjust="spacingAndGlyphs" textLength="51" x="788.25" y="518.1543">Account</text><line style="stroke: #A80036; stroke-width: 1.5;" x1="716.5" x2="878.5" y1="530" y2="530"/><ellipse cx="726.5" cy="541.9023" fill="none" rx="3" ry="3" style="stroke: #038048; stroke-width: 1.0;"/><text fill="#000000" font-family="sans-serif" font-size="11" lengthAdjust="spacingAndGlyphs" textLength="44" x="735.5" y="544.2104">account</text><line style="stroke: #A80036; stroke-width: 1.5;" x1="716.5" x2="878.5" y1="550.8047" y2="550.8047"/><ellipse cx="726.5" cy="562.707" fill="#84BE84" rx="3" ry="3" style="stroke: #038048; stroke-width: 1.0;"/><text fill="#000000" font-family="sans-serif" font-size="11" lengthAdjust="spacingAndGlyphs" textLength="61" x="735.5" y="565.0151">decrease()</text><ellipse cx="726.5" cy="575.5117" fill="#84BE84" rx="3" ry="3" style="stroke: #038048; stroke-width: 1.0;"/><text fill="#000000" font-family="sans-serif" font-size="11" lengthAdjust="spacingAndGlyphs" textLength="138" x="735.5" y="577.8198">has_enought_resource()</text><ellipse cx="726.5" cy="588.3164" fill="#84BE84" rx="3" ry="3" style="stroke: #038048; stroke-width: 1.0;"/><text fill="#000000" font-family="sans-serif" font-size="11" lengthAdjust="spacingAndGlyphs" textLength="48" x="735.5" y="590.6245">as_dict()</text><!--class Hangar--><rect fill="#FEFECE" filter="url(#f6nvoq0)" height="124.8281" style="stroke: #A80036; stroke-width: 1.5;" width="125" x="484" y="485"/><ellipse cx="520.15" cy="501" fill="#ADD1B2" rx="11" ry="11" style="stroke: #A80036; stroke-width: 1.0;"/><path d="M522.4938,496.6719 L522.6656,496.75 C522.8844,496.4375 523.0875,496.3438 523.3844,496.3438 C523.6813,496.3438 523.9625,496.4844 524.1188,496.75 C524.2125,496.9063 524.2281,497.0313 524.2281,497.4688 L524.2281,498.8906 C524.2281,499.3125 524.1969,499.5 524.0875,499.6563 C523.9156,499.875 523.65,500.0156 523.3844,500.0156 C523.1656,500.0156 522.9313,499.9063 522.7906,499.7656 C522.65,499.6406 522.6188,499.5156 522.5563,499.1094 C522.4625,498.7031 522.2906,498.4844 521.8063,498.2031 C521.3375,497.9531 520.7281,497.7969 520.15,497.7969 C518.4156,497.7969 517.1656,499.1094 517.1656,500.8906 L517.1656,501.9844 C517.1656,503.6875 518.4625,504.7813 520.5094,504.7813 C521.275,504.7813 521.9625,504.6563 522.3844,504.3906 C522.5719,504.2969 522.5719,504.2969 523.025,503.8125 C523.2125,503.625 523.4156,503.5469 523.6344,503.5469 C524.1031,503.5469 524.4938,503.9375 524.4938,504.3906 C524.4938,504.7813 524.1656,505.2344 523.5875,505.6406 C522.8375,506.1875 521.6813,506.4844 520.4625,506.4844 C517.5719,506.4844 515.4625,504.5938 515.4625,502.0156 L515.4625,500.8906 C515.4625,498.1719 517.4625,496.0938 520.0875,496.0938 C520.9625,496.0938 521.5563,496.2344 522.4938,496.6719 Z "/><text fill="#000000" font-family="sans-serif" font-size="12" lengthAdjust="spacingAndGlyphs" textLength="46" x="538.85" y="505.1543">Hangar</text><line style="stroke: #A80036; stroke-width: 1.5;" x1="485" x2="608" y1="517" y2="517"/><ellipse cx="495" cy="528.9023" fill="none" rx="3" ry="3" style="stroke: #038048; stroke-width: 1.0;"/><text fill="#000000" font-family="sans-serif" font-size="11" lengthAdjust="spacingAndGlyphs" textLength="38" x="504" y="531.2104">planes</text><line style="stroke: #A80036; stroke-width: 1.5;" x1="485" x2="608" y1="537.8047" y2="537.8047"/><ellipse cx="495" cy="549.707" fill="#84BE84" rx="3" ry="3" style="stroke: #038048; stroke-width: 1.0;"/><text fill="#000000" font-family="sans-serif" font-size="11" lengthAdjust="spacingAndGlyphs" textLength="66" x="504" y="552.0151">add_plane()</text><ellipse cx="495" cy="562.5117" fill="#84BE84" rx="3" ry="3" style="stroke: #038048; stroke-width: 1.0;"/><text fill="#000000" font-family="sans-serif" font-size="11" lengthAdjust="spacingAndGlyphs" textLength="66" x="504" y="564.8198">has_plane()</text><ellipse cx="495" cy="575.3164" fill="#84BE84" rx="3" ry="3" style="stroke: #038048; stroke-width: 1.0;"/><text fill="#000000" font-family="sans-serif" font-size="11" lengthAdjust="spacingAndGlyphs" textLength="99" x="504" y="577.6245">current_weapon()</text><ellipse cx="495" cy="588.1211" fill="#84BE84" rx="3" ry="3" style="stroke: #038048; stroke-width: 1.0;"/><text fill="#000000" font-family="sans-serif" font-size="11" lengthAdjust="spacingAndGlyphs" textLength="76" x="504" y="590.4292">set_weapon()</text><ellipse cx="495" cy="600.9258" fill="#84BE84" rx="3" ry="3" style="stroke: #038048; stroke-width: 1.0;"/><text fill="#000000" font-family="sans-serif" font-size="11" lengthAdjust="spacingAndGlyphs" textLength="48" x="504" y="603.2339">as_dict()</text><!--class Transaction--><rect fill="#FEFECE" filter="url(#f6nvoq0)" height="86.4141" style="stroke: #A80036; stroke-width: 1.5;" width="149" x="232" y="339"/><ellipse cx="266.35" cy="355" fill="#ADD1B2" rx="11" ry="11" style="stroke: #A80036; stroke-width: 1.0;"/><path d="M268.6938,350.6719 L268.8656,350.75 C269.0844,350.4375 269.2875,350.3438 269.5844,350.3438 C269.8813,350.3438 270.1625,350.4844 270.3188,350.75 C270.4125,350.9063 270.4281,351.0313 270.4281,351.4688 L270.4281,352.8906 C270.4281,353.3125 270.3969,353.5 270.2875,353.6563 C270.1156,353.875 269.85,354.0156 269.5844,354.0156 C269.3656,354.0156 269.1313,353.9063 268.9906,353.7656 C268.85,353.6406 268.8188,353.5156 268.7563,353.1094 C268.6625,352.7031 268.4906,352.4844 268.0063,352.2031 C267.5375,351.9531 266.9281,351.7969 266.35,351.7969 C264.6156,351.7969 263.3656,353.1094 263.3656,354.8906 L263.3656,355.9844 C263.3656,357.6875 264.6625,358.7813 266.7094,358.7813 C267.475,358.7813 268.1625,358.6563 268.5844,358.3906 C268.7719,358.2969 268.7719,358.2969 269.225,357.8125 C269.4125,357.625 269.6156,357.5469 269.8344,357.5469 C270.3031,357.5469 270.6938,357.9375 270.6938,358.3906 C270.6938,358.7813 270.3656,359.2344 269.7875,359.6406 C269.0375,360.1875 267.8813,360.4844 266.6625,360.4844 C263.7719,360.4844 261.6625,358.5938 261.6625,356.0156 L261.6625,354.8906 C261.6625,352.1719 263.6625,350.0938 266.2875,350.0938 C267.1625,350.0938 267.7563,350.2344 268.6938,350.6719 Z "/><text fill="#000000" font-family="sans-serif" font-size="12" lengthAdjust="spacingAndGlyphs" textLength="74" x="284.65" y="359.1543">Transaction</text><line style="stroke: #A80036; stroke-width: 1.5;" x1="233" x2="380" y1="371" y2="371"/><rect fill="none" height="6" style="stroke: #C82930; stroke-width: 1.0;" width="6" x="240" y="379.9023"/><text fill="#000000" font-family="sans-serif" font-size="11" lengthAdjust="spacingAndGlyphs" textLength="123" x="252" y="385.2104">_transaction_strategy</text><ellipse cx="243" cy="395.707" fill="none" rx="3" ry="3" style="stroke: #038048; stroke-width: 1.0;"/><text fill="#000000" font-family="sans-serif" font-size="11" lengthAdjust="spacingAndGlyphs" textLength="64" x="252" y="398.0151">transaction</text><line style="stroke: #A80036; stroke-width: 1.5;" x1="233" x2="380" y1="404.6094" y2="404.6094"/><ellipse cx="243" cy="416.5117" fill="#84BE84" rx="3" ry="3" style="stroke: #038048; stroke-width: 1.0;"/><text fill="#000000" font-family="sans-serif" font-size="11" lengthAdjust="spacingAndGlyphs" textLength="50" x="252" y="418.8198">commit()</text><path d="M466.5,114.32 C466.5,127.259 466.5,140.888 466.5,153.804 " fill="none" style="stroke: #A80036; stroke-width: 1.0;"/><polygon fill="none" points="459.5,114.105,466.5,94.105,473.5,114.105,459.5,114.105" style="stroke: #A80036; stroke-width: 1.0;"/><path d="M757.374,601.551 C738.997,625.8483 718.529,652.9093 705.832,669.6955 " fill="none" style="stroke: #A80036; stroke-width: 1.0;"/><polygon fill="#A80036" points="760.541,597.365,751.9216,602.1301,757.5248,601.3528,758.3021,606.956,760.541,597.365" style="stroke: #A80036; stroke-width: 1.0;"/><path d="M531.524,614.9274 C526.906,635.407 522.227,656.1618 519.127,669.9115 " fill="none" style="stroke: #A80036; stroke-width: 1.0;"/><polygon fill="#A80036" points="532.632,610.011,526.7501,617.9106,531.5321,614.8885,534.5541,619.6705,532.632,610.011" style="stroke: #A80036; stroke-width: 1.0;"/><path d="M386.213,382 C396.046,382 405.88,382 415.714,382 " fill="none" style="stroke: #A80036; stroke-width: 1.0;"/><polygon fill="#A80036" points="381.07,382,390.07,386,386.07,382,390.07,378,381.07,382" style="stroke: #A80036; stroke-width: 1.0;"/><path d="M607.684,333.67 C609.948,300.021 612.852,256.853 614.405,233.775 " fill="none" style="stroke: #A80036; stroke-width: 1.0;"/><polygon fill="#A80036" points="607.327,338.984,611.9221,330.2728,607.6626,333.9953,603.9402,329.7358,607.327,338.984" style="stroke: #A80036; stroke-width: 1.0;"/><path d="M616.875,425.131 C636.177,490.845 672.746,615.3425 687.299,664.8887 " fill="none" style="stroke: #A80036; stroke-width: 1.0;"/><polygon fill="#A80036" points="688.719,669.7228,690.0203,659.9603,687.3098,664.9255,682.3446,662.215,688.719,669.7228" style="stroke: #A80036; stroke-width: 1.0;"/><path d="M569.436,408.327 C529.025,437.602 467.934,482.157 466.5,485 C441.481,534.603 450.809,556.706 466.5,610 C472.66,630.9239 486.567,651.5217 497.997,665.9843 " fill="none" style="stroke: #A80036; stroke-width: 1.0;"/><polygon fill="#A80036" points="501.147,669.896,498.6178,660.3774,498.0111,666.0016,492.3869,665.3949,501.147,669.896" style="stroke: #A80036; stroke-width: 1.0;"/><path d="M649.824,421.397 C673.698,441.621 703.451,466.826 729.982,489.302 " fill="none" style="stroke: #A80036; stroke-width: 1.0; stroke-dasharray: 7.0,7.0;"/><polygon fill="#A80036" points="739.973,497.766,735.6916,488.8964,736.158,494.534,730.5204,495.0004,739.973,497.766" style="stroke: #A80036; stroke-width: 1.0;"/><line style="stroke: #A80036; stroke-width: 1.0;" x1="736.158" x2="730.054" y1="494.534" y2="489.3635"/><polygon fill="#FFFFFF" points="639.899,412.988,641.8914,419.9184,649.055,420.7448,647.0626,413.8144,639.899,412.988" style="stroke: #A80036; stroke-width: 1.0;"/><path d="M585.178,437.468 C581.224,448.615 576.999,460.526 572.846,472.23 " fill="none" style="stroke: #A80036; stroke-width: 1.0; stroke-dasharray: 7.0,7.0;"/><polygon fill="#A80036" points="568.386,484.804,575.1646,477.659,570.0575,480.0917,567.6249,474.9846,568.386,484.804" style="stroke: #A80036; stroke-width: 1.0;"/><line style="stroke: #A80036; stroke-width: 1.0;" x1="570.0575" x2="572.732" y1="480.0917" y2="472.552"/><polygon fill="#FFFFFF" points="589.564,425.105,583.7883,429.4226,585.5524,436.4146,591.328,432.097,589.564,425.105" style="stroke: #A80036; stroke-width: 1.0;"/><path d="M542.746,216.5 C552.588,216.5 562.43,216.5 572.271,216.5 " fill="none" style="stroke: #A80036; stroke-width: 1.0;"/><polygon fill="#A80036" points="577.418,216.5,568.418,212.5,572.418,216.5,568.418,220.5,577.418,216.5" style="stroke: #A80036; stroke-width: 1.0;"/><path d="M468.768,279.312 C469.804,307.536 470.964,339.137 471.711,359.51 " fill="none" style="stroke: #A80036; stroke-width: 1.0;"/><polygon fill="#A80036" points="471.902,364.692,475.5676,355.5507,471.7177,359.6954,467.573,355.8455,471.902,364.692" style="stroke: #A80036; stroke-width: 1.0;"/><path d="M527.109,289.308 C541.569,306.44 556.528,324.164 569.395,339.408 " fill="none" style="stroke: #A80036; stroke-width: 1.0; stroke-dasharray: 7.0,7.0;"/><polygon fill="#FFFFFF" points="518.672,279.312,519.4856,286.4771,526.4124,288.4818,525.5988,281.3168,518.672,279.312" style="stroke: #A80036; stroke-width: 1.0;"/><path d="M396.784,288.741 C380.027,305.864 362.658,323.613 347.684,338.915 " fill="none" style="stroke: #A80036; stroke-width: 1.0; stroke-dasharray: 7.0,7.0;"/><polygon fill="#FFFFFF" points="406.011,279.312,398.9556,280.8025,397.6179,287.8884,404.6732,286.3979,406.011,279.312" style="stroke: #A80036; stroke-width: 1.0;"/><path d="M59.2102,364.83 C72.5167,347.006 96.0519,320.195 124,309 C177.016,287.764 327.096,290.132 381,309 C412.456,320.011 441.161,346.873 457.73,364.759 " fill="none" style="stroke: #A80036; stroke-width: 1.0;"/><path d="M171.174,364.86 C183.379,347.062 205.179,320.273 232,309 C293.049,283.341 318.496,287.122 381,309 C412.456,320.011 441.161,346.873 457.73,364.759 " fill="none" style="stroke: #A80036; stroke-width: 1.0;"/><!--
@startuml
object get_transaction
object _buy_plane
object _buy_gun

object get_hangar
object get_buyer
object get_account

class Shop {
+ db
{abstract} + buy_plane()
{abstract} + buy_gun()
}
class WarPlanesShop {
+ buy_plane()
+ buy_gun()
- _product_spec_by_id()
- _product_price_by_id()
# __compatible_guns()
# __update_player()
}
class Buyer {
+ id
+ balance
+ hangar
}
class Account {
+ balance
+ decrease()
+ has_enought_resource()
+ as_dict()
}
class Hangar {
+ planes
+ add_plane()
+ has_plane()
+ current_weapon()
+ set_weapon()
+ as_dict()
}
class Transaction {
- _transaction_strategy
+ transaction
+ commit()
}
Shop <|- - WarPlanesShop
Account <- - get_account
Hangar <- - get_hangar
Transaction <- get_transaction
Buyer <- - get_buyer
Buyer - -> get_account
Buyer - -> get_hangar
Buyer o..> Account
Buyer o..> Hangar
WarPlanesShop -> get_buyer
WarPlanesShop - -> get_transaction
WarPlanesShop o.. Buyer
WarPlanesShop o.. Transaction
_buy_plane - get_transaction
_buy_gun - get_transaction
@enduml

PlantUML version 2017.09(Wed Apr 05 16:07:11 UTC 2017)
(GPL source distribution)
Java Runtime: Java(TM) SE Runtime Environment
JVM: Java HotSpot(TM) 64-Bit Server VM
Java Version: 1.7.0_25-b15
Operating System: Linux
Default Encoding: UTF-8
Language: en
Country: US
--></g></svg>