<?xml version="1.0" encoding="UTF-8" standalone="no"?><svg xmlns="http://www.w3.org/2000/svg" xmlns:xlink="http://www.w3.org/1999/xlink" contentScriptType="application/ecmascript" contentStyleType="text/css" height="325px" preserveAspectRatio="none" style="width:503px;height:325px;" version="1.1" viewBox="0 0 503 325" width="503px" zoomAndPan="magnify"><defs><filter height="300%" id="fyovyba" width="300%" x="-1" y="-1"><feGaussianBlur result="blurOut" stdDeviation="2.0"/><feColorMatrix in="blurOut" result="blurOut2" type="matrix" values="0 0 0 0 0 0 0 0 0 0 0 0 0 0 0 0 0 0 .4 0"/><feOffset dx="4.0" dy="4.0" in="blurOut2" result="blurOut3"/><feBlend in="SourceGraphic" in2="blurOut3" mode="normal"/></filter></defs><g><!--class Exception--><rect fill="#FEFECE" filter="url(#fyovyba)" height="32" style="stroke: #A80036; stroke-width: 1.5;" width="93" x="266" y="8"/><ellipse cx="281" cy="24" fill="#ADD1B2" rx="11" ry="11" style="stroke: #A80036; stroke-width: 1.0;"/><path d="M283.3438,19.6719 L283.5156,19.75 C283.7344,19.4375 283.9375,19.3438 284.2344,19.3438 C284.5313,19.3438 284.8125,19.4844 284.9688,19.75 C285.0625,19.9063 285.0781,20.0313 285.0781,20.4688 L285.0781,21.8906 C285.0781,22.3125 285.0469,22.5 284.9375,22.6563 C284.7656,22.875 284.5,23.0156 284.2344,23.0156 C284.0156,23.0156 283.7813,22.9063 283.6406,22.7656 C283.5,22.6406 283.4688,22.5156 283.4063,22.1094 C283.3125,21.7031 283.1406,21.4844 282.6563,21.2031 C282.1875,20.9531 281.5781,20.7969 281,20.7969 C279.2656,20.7969 278.0156,22.1094 278.0156,23.8906 L278.0156,24.9844 C278.0156,26.6875 279.3125,27.7813 281.3594,27.7813 C282.125,27.7813 282.8125,27.6563 283.2344,27.3906 C283.4219,27.2969 283.4219,27.2969 283.875,26.8125 C284.0625,26.625 284.2656,26.5469 284.4844,26.5469 C284.9531,26.5469 285.3438,26.9375 285.3438,27.3906 C285.3438,27.7813 285.0156,28.2344 284.4375,28.6406 C283.6875,29.1875 282.5313,29.4844 281.3125,29.4844 C278.4219,29.4844 276.3125,27.5938 276.3125,25.0156 L276.3125,23.8906 C276.3125,21.1719 278.3125,19.0938 280.9375,19.0938 C281.8125,19.0938 282.4063,19.2344 283.3438,19.6719 Z "/><text fill="#000000" font-family="sans-serif" font-size="12" lengthAdjust="spacingAndGlyphs" textLength="61" x="295" y="28.1543">Exception</text><!--class ShopError--><rect fill="#FEFECE" filter="url(#fyovyba)" height="32" style="stroke: #A80036; stroke-width: 1.5;" width="95" x="265" y="100"/><ellipse cx="280" cy="116" fill="#ADD1B2" rx="11" ry="11" style="stroke: #A80036; stroke-width: 1.0;"/><path d="M282.3438,111.6719 L282.5156,111.75 C282.7344,111.4375 282.9375,111.3438 283.2344,111.3438 C283.5313,111.3438 283.8125,111.4844 283.9688,111.75 C284.0625,111.9063 284.0781,112.0313 284.0781,112.4688 L284.0781,113.8906 C284.0781,114.3125 284.0469,114.5 283.9375,114.6563 C283.7656,114.875 283.5,115.0156 283.2344,115.0156 C283.0156,115.0156 282.7813,114.9063 282.6406,114.7656 C282.5,114.6406 282.4688,114.5156 282.4063,114.1094 C282.3125,113.7031 282.1406,113.4844 281.6563,113.2031 C281.1875,112.9531 280.5781,112.7969 280,112.7969 C278.2656,112.7969 277.0156,114.1094 277.0156,115.8906 L277.0156,116.9844 C277.0156,118.6875 278.3125,119.7813 280.3594,119.7813 C281.125,119.7813 281.8125,119.6563 282.2344,119.3906 C282.4219,119.2969 282.4219,119.2969 282.875,118.8125 C283.0625,118.625 283.2656,118.5469 283.4844,118.5469 C283.9531,118.5469 284.3438,118.9375 284.3438,119.3906 C284.3438,119.7813 284.0156,120.2344 283.4375,120.6406 C282.6875,121.1875 281.5313,121.4844 280.3125,121.4844 C277.4219,121.4844 275.3125,119.5938 275.3125,117.0156 L275.3125,115.8906 C275.3125,113.1719 277.3125,111.0938 279.9375,111.0938 C280.8125,111.0938 281.4063,111.2344 282.3438,111.6719 Z "/><text fill="#000000" font-family="sans-serif" font-size="12" lengthAdjust="spacingAndGlyphs" textLength="63" x="294" y="120.1543">ShopError</text><!--class TransactionError--><rect fill="#FEFECE" filter="url(#fyovyba)" height="32" style="stroke: #A80036; stroke-width: 1.5;" width="137" x="149" y="192"/><ellipse cx="164" cy="208" fill="#ADD1B2" rx="11" ry="11" style="stroke: #A80036; stroke-width: 1.0;"/><path d="M166.3438,203.6719 L166.5156,203.75 C166.7344,203.4375 166.9375,203.3438 167.2344,203.3438 C167.5313,203.3438 167.8125,203.4844 167.9688,203.75 C168.0625,203.9063 168.0781,204.0313 168.0781,204.4688 L168.0781,205.8906 C168.0781,206.3125 168.0469,206.5 167.9375,206.6563 C167.7656,206.875 167.5,207.0156 167.2344,207.0156 C167.0156,207.0156 166.7813,206.9063 166.6406,206.7656 C166.5,206.6406 166.4688,206.5156 166.4063,206.1094 C166.3125,205.7031 166.1406,205.4844 165.6563,205.2031 C165.1875,204.9531 164.5781,204.7969 164,204.7969 C162.2656,204.7969 161.0156,206.1094 161.0156,207.8906 L161.0156,208.9844 C161.0156,210.6875 162.3125,211.7813 164.3594,211.7813 C165.125,211.7813 165.8125,211.6563 166.2344,211.3906 C166.4219,211.2969 166.4219,211.2969 166.875,210.8125 C167.0625,210.625 167.2656,210.5469 167.4844,210.5469 C167.9531,210.5469 168.3438,210.9375 168.3438,211.3906 C168.3438,211.7813 168.0156,212.2344 167.4375,212.6406 C166.6875,213.1875 165.5313,213.4844 164.3125,213.4844 C161.4219,213.4844 159.3125,211.5938 159.3125,209.0156 L159.3125,207.8906 C159.3125,205.1719 161.3125,203.0938 163.9375,203.0938 C164.8125,203.0938 165.4063,203.2344 166.3438,203.6719 Z "/><text fill="#000000" font-family="sans-serif" font-size="12" lengthAdjust="spacingAndGlyphs" textLength="105" x="178" y="212.1543">TransactionError</text><!--class TransactionValidationError--><rect fill="#FEFECE" filter="url(#fyovyba)" height="32" style="stroke: #A80036; stroke-width: 1.5;" width="199" x="6" y="284"/><ellipse cx="21" cy="300" fill="#ADD1B2" rx="11" ry="11" style="stroke: #A80036; stroke-width: 1.0;"/><path d="M23.3438,295.6719 L23.5156,295.75 C23.7344,295.4375 23.9375,295.3438 24.2344,295.3438 C24.5313,295.3438 24.8125,295.4844 24.9688,295.75 C25.0625,295.9063 25.0781,296.0313 25.0781,296.4688 L25.0781,297.8906 C25.0781,298.3125 25.0469,298.5 24.9375,298.6563 C24.7656,298.875 24.5,299.0156 24.2344,299.0156 C24.0156,299.0156 23.7813,298.9063 23.6406,298.7656 C23.5,298.6406 23.4688,298.5156 23.4063,298.1094 C23.3125,297.7031 23.1406,297.4844 22.6563,297.2031 C22.1875,296.9531 21.5781,296.7969 21,296.7969 C19.2656,296.7969 18.0156,298.1094 18.0156,299.8906 L18.0156,300.9844 C18.0156,302.6875 19.3125,303.7813 21.3594,303.7813 C22.125,303.7813 22.8125,303.6563 23.2344,303.3906 C23.4219,303.2969 23.4219,303.2969 23.875,302.8125 C24.0625,302.625 24.2656,302.5469 24.4844,302.5469 C24.9531,302.5469 25.3438,302.9375 25.3438,303.3906 C25.3438,303.7813 25.0156,304.2344 24.4375,304.6406 C23.6875,305.1875 22.5313,305.4844 21.3125,305.4844 C18.4219,305.4844 16.3125,303.5938 16.3125,301.0156 L16.3125,299.8906 C16.3125,297.1719 18.3125,295.0938 20.9375,295.0938 C21.8125,295.0938 22.4063,295.2344 23.3438,295.6719 Z "/><text fill="#000000" font-family="sans-serif" font-size="12" lengthAdjust="spacingAndGlyphs" textLength="167" x="35" y="304.1543">TransactionValidationError</text><!--class MessageValidationError--><rect fill="#FEFECE" filter="url(#fyovyba)" height="32" style="stroke: #A80036; stroke-width: 1.5;" width="181" x="240" y="284"/><ellipse cx="255" cy="300" fill="#ADD1B2" rx="11" ry="11" style="stroke: #A80036; stroke-width: 1.0;"/><path d="M257.3438,295.6719 L257.5156,295.75 C257.7344,295.4375 257.9375,295.3438 258.2344,295.3438 C258.5313,295.3438 258.8125,295.4844 258.9688,295.75 C259.0625,295.9063 259.0781,296.0313 259.0781,296.4688 L259.0781,297.8906 C259.0781,298.3125 259.0469,298.5 258.9375,298.6563 C258.7656,298.875 258.5,299.0156 258.2344,299.0156 C258.0156,299.0156 257.7813,298.9063 257.6406,298.7656 C257.5,298.6406 257.4688,298.5156 257.4063,298.1094 C257.3125,297.7031 257.1406,297.4844 256.6563,297.2031 C256.1875,296.9531 255.5781,296.7969 255,296.7969 C253.2656,296.7969 252.0156,298.1094 252.0156,299.8906 L252.0156,300.9844 C252.0156,302.6875 253.3125,303.7813 255.3594,303.7813 C256.125,303.7813 256.8125,303.6563 257.2344,303.3906 C257.4219,303.2969 257.4219,303.2969 257.875,302.8125 C258.0625,302.625 258.2656,302.5469 258.4844,302.5469 C258.9531,302.5469 259.3438,302.9375 259.3438,303.3906 C259.3438,303.7813 259.0156,304.2344 258.4375,304.6406 C257.6875,305.1875 256.5313,305.4844 255.3125,305.4844 C252.4219,305.4844 250.3125,303.5938 250.3125,301.0156 L250.3125,299.8906 C250.3125,297.1719 252.3125,295.0938 254.9375,295.0938 C255.8125,295.0938 256.4063,295.2344 257.3438,295.6719 Z "/><text fill="#000000" font-family="sans-serif" font-size="12" lengthAdjust="spacingAndGlyphs" textLength="149" x="269" y="304.1543">MessageValidationError</text><!--class ProductDatabaseError--><rect fill="#FEFECE" filter="url(#fyovyba)" height="32" style="stroke: #A80036; stroke-width: 1.5;" width="173" x="321" y="192"/><ellipse cx="336" cy="208" fill="#ADD1B2" rx="11" ry="11" style="stroke: #A80036; stroke-width: 1.0;"/><path d="M338.3438,203.6719 L338.5156,203.75 C338.7344,203.4375 338.9375,203.3438 339.2344,203.3438 C339.5313,203.3438 339.8125,203.4844 339.9688,203.75 C340.0625,203.9063 340.0781,204.0313 340.0781,204.4688 L340.0781,205.8906 C340.0781,206.3125 340.0469,206.5 339.9375,206.6563 C339.7656,206.875 339.5,207.0156 339.2344,207.0156 C339.0156,207.0156 338.7813,206.9063 338.6406,206.7656 C338.5,206.6406 338.4688,206.5156 338.4063,206.1094 C338.3125,205.7031 338.1406,205.4844 337.6563,205.2031 C337.1875,204.9531 336.5781,204.7969 336,204.7969 C334.2656,204.7969 333.0156,206.1094 333.0156,207.8906 L333.0156,208.9844 C333.0156,210.6875 334.3125,211.7813 336.3594,211.7813 C337.125,211.7813 337.8125,211.6563 338.2344,211.3906 C338.4219,211.2969 338.4219,211.2969 338.875,210.8125 C339.0625,210.625 339.2656,210.5469 339.4844,210.5469 C339.9531,210.5469 340.3438,210.9375 340.3438,211.3906 C340.3438,211.7813 340.0156,212.2344 339.4375,212.6406 C338.6875,213.1875 337.5313,213.4844 336.3125,213.4844 C333.4219,213.4844 331.3125,211.5938 331.3125,209.0156 L331.3125,207.8906 C331.3125,205.1719 333.3125,203.0938 335.9375,203.0938 C336.8125,203.0938 337.4063,203.2344 338.3438,203.6719 Z "/><text fill="#000000" font-family="sans-serif" font-size="12" lengthAdjust="spacingAndGlyphs" textLength="141" x="350" y="212.1543">ProductDatabaseError</text><path d="M312.5,60.615 C312.5,74.31 312.5,89.22 312.5,99.958 " fill="none" style="stroke: #A80036; stroke-width: 1.0;"/><polygon fill="none" points="305.5,60.267,312.5,40.267,319.5,60.267,305.5,60.267" style="stroke: #A80036; stroke-width: 1.0;"/><path d="M281.835,146.051 C265.686,161.35 246.556,179.473 233.377,191.958 " fill="none" style="stroke: #A80036; stroke-width: 1.0;"/><polygon fill="none" points="277.051,140.941,296.385,132.267,286.68,151.104,277.051,140.941" style="stroke: #A80036; stroke-width: 1.0;"/><path d="M343.165,146.051 C359.314,161.35 378.444,179.473 391.623,191.958 " fill="none" style="stroke: #A80036; stroke-width: 1.0;"/><polygon fill="none" points="338.32,151.104,328.615,132.267,347.949,140.941,338.32,151.104" style="stroke: #A80036; stroke-width: 1.0;"/><path d="M183.08,236.6586 C163.728,252.2095 140.317,271.0222 124.307,283.8869 " fill="none" style="stroke: #A80036; stroke-width: 1.0;"/><polygon fill="none" points="178.779,231.1353,198.754,224.064,187.548,242.0484,178.779,231.1353" style="stroke: #A80036; stroke-width: 1.0;"/><path d="M252.227,236.6586 C271.752,252.2095 295.372,271.0222 311.525,283.8869 " fill="none" style="stroke: #A80036; stroke-width: 1.0;"/><polygon fill="none" points="247.697,241.9996,236.414,224.064,256.419,231.0486,247.697,241.9996" style="stroke: #A80036; stroke-width: 1.0;"/><!--
@startuml
class Exception
class ShopError
class TransactionError
class TransactionValidationError
class MessageValidationError
class ProductDatabaseError


Exception <|- - ShopError
ShopError <|- - TransactionError
ShopError <|- - ProductDatabaseError
TransactionError <|- - TransactionValidationError
TransactionError <|- - MessageValidationError
hide members
@enduml

PlantUML version 2017.09(Wed Apr 05 16:07:11 UTC 2017)
(GPL source distribution)
Java Runtime: Java(TM) SE Runtime Environment
JVM: Java HotSpot(TM) 64-Bit Server VM
Java Version: 1.7.0_25-b15
Operating System: Linux
Default Encoding: UTF-8
Language: en
Country: US
--></g></svg>