<?xml version="1.0" encoding="UTF-8" standalone="no"?><svg xmlns="http://www.w3.org/2000/svg" xmlns:xlink="http://www.w3.org/1999/xlink" contentScriptType="application/ecmascript" contentStyleType="text/css" height="325px" preserveAspectRatio="none" style="width:802px;height:325px;" version="1.1" viewBox="0 0 802 325" width="802px" zoomAndPan="magnify"><defs><filter height="300%" id="f9631qt" width="300%" x="-1" y="-1"><feGaussianBlur result="blurOut" stdDeviation="2.0"/><feColorMatrix in="blurOut" result="blurOut2" type="matrix" values="0 0 0 0 0 0 0 0 0 0 0 0 0 0 0 0 0 0 .4 0"/><feOffset dx="4.0" dy="4.0" in="blurOut2" result="blurOut3"/><feBlend in="SourceGraphic" in2="blurOut3" mode="normal"/></filter></defs><g><!--class Exception--><rect fill="#FEFECE" filter="url(#f9631qt)" height="32" style="stroke: #A80036; stroke-width: 1.5;" width="93" x="352.5" y="8"/><ellipse cx="367.5" cy="24" fill="#ADD1B2" rx="11" ry="11" style="stroke: #A80036; stroke-width: 1.0;"/><path d="M369.8438,19.6719 L370.0156,19.75 C370.2344,19.4375 370.4375,19.3438 370.7344,19.3438 C371.0313,19.3438 371.3125,19.4844 371.4688,19.75 C371.5625,19.9063 371.5781,20.0313 371.5781,20.4688 L371.5781,21.8906 C371.5781,22.3125 371.5469,22.5 371.4375,22.6563 C371.2656,22.875 371,23.0156 370.7344,23.0156 C370.5156,23.0156 370.2813,22.9063 370.1406,22.7656 C370,22.6406 369.9688,22.5156 369.9063,22.1094 C369.8125,21.7031 369.6406,21.4844 369.1563,21.2031 C368.6875,20.9531 368.0781,20.7969 367.5,20.7969 C365.7656,20.7969 364.5156,22.1094 364.5156,23.8906 L364.5156,24.9844 C364.5156,26.6875 365.8125,27.7813 367.8594,27.7813 C368.625,27.7813 369.3125,27.6563 369.7344,27.3906 C369.9219,27.2969 369.9219,27.2969 370.375,26.8125 C370.5625,26.625 370.7656,26.5469 370.9844,26.5469 C371.4531,26.5469 371.8438,26.9375 371.8438,27.3906 C371.8438,27.7813 371.5156,28.2344 370.9375,28.6406 C370.1875,29.1875 369.0313,29.4844 367.8125,29.4844 C364.9219,29.4844 362.8125,27.5938 362.8125,25.0156 L362.8125,23.8906 C362.8125,21.1719 364.8125,19.0938 367.4375,19.0938 C368.3125,19.0938 368.9063,19.2344 369.8438,19.6719 Z "/><text fill="#000000" font-family="sans-serif" font-size="12" lengthAdjust="spacingAndGlyphs" textLength="61" x="381.5" y="28.1543">Exception</text><!--class ShopErrors--><rect fill="#FEFECE" filter="url(#f9631qt)" height="32" style="stroke: #A80036; stroke-width: 1.5;" width="102" x="348" y="100"/><ellipse cx="363" cy="116" fill="#ADD1B2" rx="11" ry="11" style="stroke: #A80036; stroke-width: 1.0;"/><path d="M365.3438,111.6719 L365.5156,111.75 C365.7344,111.4375 365.9375,111.3438 366.2344,111.3438 C366.5313,111.3438 366.8125,111.4844 366.9688,111.75 C367.0625,111.9063 367.0781,112.0313 367.0781,112.4688 L367.0781,113.8906 C367.0781,114.3125 367.0469,114.5 366.9375,114.6563 C366.7656,114.875 366.5,115.0156 366.2344,115.0156 C366.0156,115.0156 365.7813,114.9063 365.6406,114.7656 C365.5,114.6406 365.4688,114.5156 365.4063,114.1094 C365.3125,113.7031 365.1406,113.4844 364.6563,113.2031 C364.1875,112.9531 363.5781,112.7969 363,112.7969 C361.2656,112.7969 360.0156,114.1094 360.0156,115.8906 L360.0156,116.9844 C360.0156,118.6875 361.3125,119.7813 363.3594,119.7813 C364.125,119.7813 364.8125,119.6563 365.2344,119.3906 C365.4219,119.2969 365.4219,119.2969 365.875,118.8125 C366.0625,118.625 366.2656,118.5469 366.4844,118.5469 C366.9531,118.5469 367.3438,118.9375 367.3438,119.3906 C367.3438,119.7813 367.0156,120.2344 366.4375,120.6406 C365.6875,121.1875 364.5313,121.4844 363.3125,121.4844 C360.4219,121.4844 358.3125,119.5938 358.3125,117.0156 L358.3125,115.8906 C358.3125,113.1719 360.3125,111.0938 362.9375,111.0938 C363.8125,111.0938 364.4063,111.2344 365.3438,111.6719 Z "/><text fill="#000000" font-family="sans-serif" font-size="12" lengthAdjust="spacingAndGlyphs" textLength="70" x="377" y="120.1543">ShopErrors</text><!--class TransactionValidationError--><rect fill="#FEFECE" filter="url(#f9631qt)" height="32" style="stroke: #A80036; stroke-width: 1.5;" width="199" x="299.5" y="192"/><ellipse cx="314.5" cy="208" fill="#ADD1B2" rx="11" ry="11" style="stroke: #A80036; stroke-width: 1.0;"/><path d="M316.8438,203.6719 L317.0156,203.75 C317.2344,203.4375 317.4375,203.3438 317.7344,203.3438 C318.0313,203.3438 318.3125,203.4844 318.4688,203.75 C318.5625,203.9063 318.5781,204.0313 318.5781,204.4688 L318.5781,205.8906 C318.5781,206.3125 318.5469,206.5 318.4375,206.6563 C318.2656,206.875 318,207.0156 317.7344,207.0156 C317.5156,207.0156 317.2813,206.9063 317.1406,206.7656 C317,206.6406 316.9688,206.5156 316.9063,206.1094 C316.8125,205.7031 316.6406,205.4844 316.1563,205.2031 C315.6875,204.9531 315.0781,204.7969 314.5,204.7969 C312.7656,204.7969 311.5156,206.1094 311.5156,207.8906 L311.5156,208.9844 C311.5156,210.6875 312.8125,211.7813 314.8594,211.7813 C315.625,211.7813 316.3125,211.6563 316.7344,211.3906 C316.9219,211.2969 316.9219,211.2969 317.375,210.8125 C317.5625,210.625 317.7656,210.5469 317.9844,210.5469 C318.4531,210.5469 318.8438,210.9375 318.8438,211.3906 C318.8438,211.7813 318.5156,212.2344 317.9375,212.6406 C317.1875,213.1875 316.0313,213.4844 314.8125,213.4844 C311.9219,213.4844 309.8125,211.5938 309.8125,209.0156 L309.8125,207.8906 C309.8125,205.1719 311.8125,203.0938 314.4375,203.0938 C315.3125,203.0938 315.9063,203.2344 316.8438,203.6719 Z "/><text fill="#000000" font-family="sans-serif" font-size="12" lengthAdjust="spacingAndGlyphs" textLength="167" x="328.5" y="212.1543">TransactionValidationError</text><!--class ProductsNotCompatible--><rect fill="#FEFECE" filter="url(#f9631qt)" height="32" style="stroke: #A80036; stroke-width: 1.5;" width="180" x="6" y="284"/><ellipse cx="21" cy="300" fill="#ADD1B2" rx="11" ry="11" style="stroke: #A80036; stroke-width: 1.0;"/><path d="M23.3438,295.6719 L23.5156,295.75 C23.7344,295.4375 23.9375,295.3438 24.2344,295.3438 C24.5313,295.3438 24.8125,295.4844 24.9688,295.75 C25.0625,295.9063 25.0781,296.0313 25.0781,296.4688 L25.0781,297.8906 C25.0781,298.3125 25.0469,298.5 24.9375,298.6563 C24.7656,298.875 24.5,299.0156 24.2344,299.0156 C24.0156,299.0156 23.7813,298.9063 23.6406,298.7656 C23.5,298.6406 23.4688,298.5156 23.4063,298.1094 C23.3125,297.7031 23.1406,297.4844 22.6563,297.2031 C22.1875,296.9531 21.5781,296.7969 21,296.7969 C19.2656,296.7969 18.0156,298.1094 18.0156,299.8906 L18.0156,300.9844 C18.0156,302.6875 19.3125,303.7813 21.3594,303.7813 C22.125,303.7813 22.8125,303.6563 23.2344,303.3906 C23.4219,303.2969 23.4219,303.2969 23.875,302.8125 C24.0625,302.625 24.2656,302.5469 24.4844,302.5469 C24.9531,302.5469 25.3438,302.9375 25.3438,303.3906 C25.3438,303.7813 25.0156,304.2344 24.4375,304.6406 C23.6875,305.1875 22.5313,305.4844 21.3125,305.4844 C18.4219,305.4844 16.3125,303.5938 16.3125,301.0156 L16.3125,299.8906 C16.3125,297.1719 18.3125,295.0938 20.9375,295.0938 C21.8125,295.0938 22.4063,295.2344 23.3438,295.6719 Z "/><text fill="#000000" font-family="sans-serif" font-size="12" lengthAdjust="spacingAndGlyphs" textLength="148" x="35" y="304.1543">ProductsNotCompatible</text><!--class ProductAlreadyBoat--><rect fill="#FEFECE" filter="url(#f9631qt)" height="32" style="stroke: #A80036; stroke-width: 1.5;" width="156" x="221" y="284"/><ellipse cx="236" cy="300" fill="#ADD1B2" rx="11" ry="11" style="stroke: #A80036; stroke-width: 1.0;"/><path d="M238.3438,295.6719 L238.5156,295.75 C238.7344,295.4375 238.9375,295.3438 239.2344,295.3438 C239.5313,295.3438 239.8125,295.4844 239.9688,295.75 C240.0625,295.9063 240.0781,296.0313 240.0781,296.4688 L240.0781,297.8906 C240.0781,298.3125 240.0469,298.5 239.9375,298.6563 C239.7656,298.875 239.5,299.0156 239.2344,299.0156 C239.0156,299.0156 238.7813,298.9063 238.6406,298.7656 C238.5,298.6406 238.4688,298.5156 238.4063,298.1094 C238.3125,297.7031 238.1406,297.4844 237.6563,297.2031 C237.1875,296.9531 236.5781,296.7969 236,296.7969 C234.2656,296.7969 233.0156,298.1094 233.0156,299.8906 L233.0156,300.9844 C233.0156,302.6875 234.3125,303.7813 236.3594,303.7813 C237.125,303.7813 237.8125,303.6563 238.2344,303.3906 C238.4219,303.2969 238.4219,303.2969 238.875,302.8125 C239.0625,302.625 239.2656,302.5469 239.4844,302.5469 C239.9531,302.5469 240.3438,302.9375 240.3438,303.3906 C240.3438,303.7813 240.0156,304.2344 239.4375,304.6406 C238.6875,305.1875 237.5313,305.4844 236.3125,305.4844 C233.4219,305.4844 231.3125,303.5938 231.3125,301.0156 L231.3125,299.8906 C231.3125,297.1719 233.3125,295.0938 235.9375,295.0938 C236.8125,295.0938 237.4063,295.2344 238.3438,295.6719 Z "/><text fill="#000000" font-family="sans-serif" font-size="12" lengthAdjust="spacingAndGlyphs" textLength="124" x="250" y="304.1543">ProductAlreadyBoat</text><!--class NotEnoughtResources--><rect fill="#FEFECE" filter="url(#f9631qt)" height="32" style="stroke: #A80036; stroke-width: 1.5;" width="173" x="412.5" y="284"/><ellipse cx="427.5" cy="300" fill="#ADD1B2" rx="11" ry="11" style="stroke: #A80036; stroke-width: 1.0;"/><path d="M429.8438,295.6719 L430.0156,295.75 C430.2344,295.4375 430.4375,295.3438 430.7344,295.3438 C431.0313,295.3438 431.3125,295.4844 431.4688,295.75 C431.5625,295.9063 431.5781,296.0313 431.5781,296.4688 L431.5781,297.8906 C431.5781,298.3125 431.5469,298.5 431.4375,298.6563 C431.2656,298.875 431,299.0156 430.7344,299.0156 C430.5156,299.0156 430.2813,298.9063 430.1406,298.7656 C430,298.6406 429.9688,298.5156 429.9063,298.1094 C429.8125,297.7031 429.6406,297.4844 429.1563,297.2031 C428.6875,296.9531 428.0781,296.7969 427.5,296.7969 C425.7656,296.7969 424.5156,298.1094 424.5156,299.8906 L424.5156,300.9844 C424.5156,302.6875 425.8125,303.7813 427.8594,303.7813 C428.625,303.7813 429.3125,303.6563 429.7344,303.3906 C429.9219,303.2969 429.9219,303.2969 430.375,302.8125 C430.5625,302.625 430.7656,302.5469 430.9844,302.5469 C431.4531,302.5469 431.8438,302.9375 431.8438,303.3906 C431.8438,303.7813 431.5156,304.2344 430.9375,304.6406 C430.1875,305.1875 429.0313,305.4844 427.8125,305.4844 C424.9219,305.4844 422.8125,303.5938 422.8125,301.0156 L422.8125,299.8906 C422.8125,297.1719 424.8125,295.0938 427.4375,295.0938 C428.3125,295.0938 428.9063,295.2344 429.8438,295.6719 Z "/><text fill="#000000" font-family="sans-serif" font-size="12" lengthAdjust="spacingAndGlyphs" textLength="141" x="441.5" y="304.1543">NotEnoughtResources</text><!--class NoSuchPlaneInHangar--><rect fill="#FEFECE" filter="url(#f9631qt)" height="32" style="stroke: #A80036; stroke-width: 1.5;" width="172" x="621" y="284"/><ellipse cx="636" cy="300" fill="#ADD1B2" rx="11" ry="11" style="stroke: #A80036; stroke-width: 1.0;"/><path d="M638.3438,295.6719 L638.5156,295.75 C638.7344,295.4375 638.9375,295.3438 639.2344,295.3438 C639.5313,295.3438 639.8125,295.4844 639.9688,295.75 C640.0625,295.9063 640.0781,296.0313 640.0781,296.4688 L640.0781,297.8906 C640.0781,298.3125 640.0469,298.5 639.9375,298.6563 C639.7656,298.875 639.5,299.0156 639.2344,299.0156 C639.0156,299.0156 638.7813,298.9063 638.6406,298.7656 C638.5,298.6406 638.4688,298.5156 638.4063,298.1094 C638.3125,297.7031 638.1406,297.4844 637.6563,297.2031 C637.1875,296.9531 636.5781,296.7969 636,296.7969 C634.2656,296.7969 633.0156,298.1094 633.0156,299.8906 L633.0156,300.9844 C633.0156,302.6875 634.3125,303.7813 636.3594,303.7813 C637.125,303.7813 637.8125,303.6563 638.2344,303.3906 C638.4219,303.2969 638.4219,303.2969 638.875,302.8125 C639.0625,302.625 639.2656,302.5469 639.4844,302.5469 C639.9531,302.5469 640.3438,302.9375 640.3438,303.3906 C640.3438,303.7813 640.0156,304.2344 639.4375,304.6406 C638.6875,305.1875 637.5313,305.4844 636.3125,305.4844 C633.4219,305.4844 631.3125,303.5938 631.3125,301.0156 L631.3125,299.8906 C631.3125,297.1719 633.3125,295.0938 635.9375,295.0938 C636.8125,295.0938 637.4063,295.2344 638.3438,295.6719 Z "/><text fill="#000000" font-family="sans-serif" font-size="12" lengthAdjust="spacingAndGlyphs" textLength="140" x="650" y="304.1543">NoSuchPlaneInHangar</text><path d="M399,60.615 C399,74.31 399,89.22 399,99.958 " fill="none" style="stroke: #A80036; stroke-width: 1.0;"/><polygon fill="none" points="392,60.267,399,40.267,406,60.267,392,60.267" style="stroke: #A80036; stroke-width: 1.0;"/><path d="M399,152.615 C399,166.31 399,181.22 399,191.958 " fill="none" style="stroke: #A80036; stroke-width: 1.0;"/><polygon fill="none" points="392,152.267,399,132.267,406,152.267,392,152.267" style="stroke: #A80036; stroke-width: 1.0;"/><path d="M328.785,229.856 C273.058,246.4084 196.486,269.1525 146.628,283.962 " fill="none" style="stroke: #A80036; stroke-width: 1.0;"/><polygon fill="none" points="327.119,223.0485,348.285,224.064,331.106,236.469,327.119,223.0485" style="stroke: #A80036; stroke-width: 1.0;"/><path d="M366.985,237.8138 C349.931,253.1619 329.658,271.4082 315.713,283.9582 " fill="none" style="stroke: #A80036; stroke-width: 1.0;"/><polygon fill="none" points="362.488,232.4435,382.036,224.2673,371.853,242.8497,362.488,232.4435" style="stroke: #A80036; stroke-width: 1.0;"/><path d="M431.015,237.8138 C448.069,253.1619 468.342,271.4082 482.287,283.9582 " fill="none" style="stroke: #A80036; stroke-width: 1.0;"/><polygon fill="none" points="426.147,242.8497,415.964,224.2673,435.512,232.4435,426.147,242.8497" style="stroke: #A80036; stroke-width: 1.0;"/><path d="M470.001,229.7471 C526.678,246.3086 604.744,269.1201 655.536,283.962 " fill="none" style="stroke: #A80036; stroke-width: 1.0;"/><polygon fill="none" points="467.786,236.3926,450.552,224.064,471.713,222.9546,467.786,236.3926" style="stroke: #A80036; stroke-width: 1.0;"/><!--
@startuml
class Exception
class ShopErrors
class TransactionValidationError
class ProductsNotCompatible
class ProductAlreadyBoat
class NotEnoughtResources
class NoSuchPlaneInHangar

Exception <|- - ShopErrors
ShopErrors <|- - TransactionValidationError
TransactionValidationError <|- - ProductsNotCompatible
TransactionValidationError <|- - ProductAlreadyBoat
TransactionValidationError <|- - NotEnoughtResources
TransactionValidationError <|- - NoSuchPlaneInHangar
hide members
@enduml

PlantUML version 2017.09(Wed Apr 05 16:07:11 UTC 2017)
(GPL source distribution)
Java Runtime: Java(TM) SE Runtime Environment
JVM: Java HotSpot(TM) 64-Bit Server VM
Java Version: 1.7.0_25-b15
Operating System: Linux
Default Encoding: UTF-8
Language: en
Country: US
--></g></svg>